# xmcd CD database file
#
# Track frame offsets:
#	150
#	1839
#	18594
#	23784
#	27930
#	37460
#	59327
#	78714
#
# Disc length: 1176 seconds
#
# Revision: 0
# Processed by: cddbd v1.5.2PL0 Copyright (c) Steve Scherf et al.
# Submitted via: CDex 1.78
#
DISCID=61049608
DTITLE=Various Artist - Kundalini Yoga Fan
DYEAR=1900
DGENRE=New Age
TTITLE0=Shakta Kaur - Ong Namo
TTITLE1=Ragi Sat Nam Sighn - Bhor Na Marne Hoa
TTITLE2=Kulwant Sighn - Jaap Sahib Last 4 Lines
TTITLE3=Nirinjan Kaur - Humee Hum Brahm Hum
TTITLE4=Ragi Sat Nam Sighn - Dukh Bhanjan
TTITLE5=Yogi Bhajan Gong (KYB054, 14 NOV 1984)
TTITLE6=Sat Kartar - Laya Yoga from LISTEN
TTITLE7=Siri Dharma Kaur - Meditation for communication from HEALING IN AFRICA
EXTD=
EXTT0=
EXTT1=
EXTT2=
EXTT3=
EXTT4=
EXTT5=
EXTT6=
EXTT7=
PLAYORDER=
